<svg width="402" height="387" viewBox="0 0 402 387" fill="none" xmlns="http://www.w3.org/2000/svg">
<g clip-path="url(#clip0_39_174)">
<path d="M362.019 374.926C363.542 375.021 364.383 373.124 363.231 372.018L363.117 371.561C363.132 371.524 363.147 371.488 363.162 371.451C364.702 367.769 369.919 367.794 371.445 371.482C372.8 374.756 374.525 378.035 374.95 381.496C375.14 383.024 375.054 384.581 374.716 386.08C377.891 379.123 379.561 371.526 379.561 363.887C379.561 361.967 379.457 360.048 379.242 358.133C379.066 356.567 378.824 355.011 378.51 353.468C376.811 345.132 373.132 337.191 367.825 330.559C365.274 329.16 363.147 326.973 361.862 324.352C361.4 323.407 361.038 322.39 360.867 321.353C361.157 321.392 361.962 316.956 361.743 316.684C362.147 316.068 362.871 315.762 363.313 315.161C365.511 312.172 368.538 312.693 370.119 316.755C373.495 318.465 373.528 321.3 371.456 324.027C370.138 325.762 369.957 328.11 368.801 329.967C368.92 330.12 369.043 330.268 369.162 330.421C371.344 333.228 373.231 336.246 374.822 339.416C374.373 335.893 375.036 331.648 376.168 328.912C377.456 325.794 379.871 323.169 381.997 320.473C384.551 317.236 389.788 318.649 390.238 322.753C390.242 322.792 390.246 322.832 390.251 322.872C389.935 323.051 389.625 323.24 389.323 323.441C387.599 324.585 388.195 327.266 390.238 327.582L390.284 327.589C390.17 328.73 389.975 329.862 389.689 330.975C392.417 341.558 386.528 345.412 378.119 345.585C377.934 345.681 377.753 345.776 377.567 345.867C378.419 348.273 379.1 350.742 379.604 353.244C380.056 355.455 380.37 357.689 380.546 359.933C380.765 362.765 380.746 365.611 380.508 368.437L380.523 368.337C381.127 365.224 382.812 362.316 385.258 360.301C388.902 357.298 394.051 356.192 397.982 353.778C399.875 352.616 402.3 354.117 401.97 356.319L401.954 356.424C401.368 356.663 400.797 356.94 400.245 357.25C399.929 357.429 399.62 357.619 399.318 357.819C397.594 358.963 398.189 361.644 400.232 361.96L400.278 361.967C400.312 361.972 400.34 361.977 400.373 361.982C399.369 364.374 397.97 366.594 396.219 368.509C394.513 377.747 387.188 378.624 379.352 375.934H379.347C378.491 379.677 377.239 383.334 375.63 386.82H362.352C362.304 386.672 362.262 386.519 362.219 386.371C363.447 386.448 364.684 386.376 365.893 386.152C364.908 384.939 363.923 383.716 362.937 382.504C362.914 382.48 362.894 382.456 362.875 382.432C362.376 381.811 361.871 381.195 361.372 380.575L361.371 380.574C361.34 378.668 361.568 376.769 362.019 374.926Z" fill="#F2F2F2"/>
<path d="M117.714 386.12C117.714 386.608 118.105 387 118.591 387H401.02C401.506 387 401.897 386.608 401.897 386.12C401.897 385.632 401.506 385.241 401.02 385.241H118.591C118.105 385.241 117.714 385.632 117.714 386.12Z" fill="#CCCCCC"/>
<path d="M160.57 386.625H30.5712C14.7201 386.625 1.8241 373.687 1.8241 357.784V77.4966C1.8241 61.5938 14.7201 48.6558 30.5712 48.6558H160.57C176.421 48.6558 189.317 61.5938 189.317 77.4966V357.784C189.317 373.687 176.421 386.625 160.57 386.625Z" fill="#393939"/>
<path d="M189.317 151.755C188.647 151.755 188.101 152.302 188.101 152.975V192.018C188.101 192.691 188.647 193.238 189.317 193.238C189.988 193.238 190.533 192.691 190.533 192.018V152.975C190.533 152.302 189.988 151.755 189.317 151.755Z" fill="#393939"/>
<path d="M186.581 77.4968V357.779C186.581 371.621 175.843 382.944 162.264 383.822H162.258C162.058 383.835 161.857 383.847 161.65 383.853C161.291 383.871 160.933 383.877 160.568 383.877C160.568 383.877 159.23 383.78 156.786 383.597C154.317 383.414 150.723 383.139 146.242 382.779C144.898 382.676 143.481 382.56 141.985 382.438C139.006 382.194 135.734 381.925 132.226 381.62C130.827 381.504 129.38 381.376 127.902 381.248C120.35 380.595 111.892 379.833 102.971 378.966C101.463 378.826 99.9431 378.68 98.4108 378.527C98.0095 378.485 97.602 378.448 97.1946 378.405C90.8342 377.777 4.56067 361.049 4.56067 357.779V77.4968C4.56067 63.0813 16.2052 51.3988 30.574 51.3988H46.1041C48.585 51.3988 50.5795 53.3387 50.7923 55.8216C50.8106 55.9864 50.8288 56.1511 50.8592 56.3158C51.3092 58.8109 53.5895 60.5496 56.119 60.5496H135.023C137.552 60.5496 139.833 58.8109 140.283 56.3158C140.313 56.1511 140.331 55.9864 140.349 55.8216C140.562 53.3387 142.557 51.3988 145.038 51.3988H160.568C174.937 51.3988 186.581 63.0813 186.581 77.4968Z" fill="#F4F4F5"/>
<path d="M1.21614 122.472C0.545419 122.472 0 123.019 0 123.692V133.453C0 134.126 0.545426 134.673 1.21614 134.673C1.88685 134.673 2.43228 134.126 2.43228 133.453V123.692C2.43228 123.019 1.88685 122.472 1.21614 122.472Z" fill="#393939"/>
<path d="M1.21614 151.755C0.545419 151.755 0 152.302 0 152.975V171.887C0 172.559 0.545426 173.107 1.21614 173.107C1.88685 173.107 2.43228 172.559 2.43228 171.887V152.975C2.43228 152.302 1.88685 151.755 1.21614 151.755Z" fill="#393939"/>
<path d="M1.21614 178.597C0.545419 178.597 0 179.144 0 179.817V198.729C0 199.402 0.545426 199.949 1.21614 199.949C1.88685 199.949 2.43228 199.402 2.43228 198.729V179.817C2.43228 179.144 1.88685 178.597 1.21614 178.597Z" fill="#393939"/>
<path d="M45.6808 55.6715H22.4232C22.2969 55.6715 22.1946 55.7742 22.1946 55.9008V58.4924C22.1946 58.6191 22.2969 58.7218 22.4232 58.7218H45.6808C45.807 58.7218 45.9094 58.6191 45.9094 58.4924V55.9008C45.9094 55.7742 45.807 55.6715 45.6808 55.6715Z" fill="#E6E6E6"/>
<path d="M148.881 58.7218C150.224 58.7218 151.313 57.6293 151.313 56.2816C151.313 54.9339 150.224 53.8414 148.881 53.8414C147.537 53.8414 146.448 54.9339 146.448 56.2816C146.448 57.6293 147.537 58.7218 148.881 58.7218Z" fill="#E6E6E6"/>
<path d="M155.569 58.7218C156.913 58.7218 158.002 57.6293 158.002 56.2816C158.002 54.9339 156.913 53.8414 155.569 53.8414C154.226 53.8414 153.137 54.9339 153.137 56.2816C153.137 57.6293 154.226 58.7218 155.569 58.7218Z" fill="#E6E6E6"/>
<path d="M162.258 58.7218C163.601 58.7218 164.69 57.6293 164.69 56.2816C164.69 54.9339 163.601 53.8414 162.258 53.8414C160.915 53.8414 159.826 54.9339 159.826 56.2816C159.826 57.6293 160.915 58.7218 162.258 58.7218Z" fill="#E6E6E6"/>
<path d="M146.846 220.679H43.687C42.0619 220.679 40.7396 219.352 40.7396 217.722C40.7396 216.092 42.0619 214.765 43.687 214.765H146.846C148.472 214.765 149.794 216.092 149.794 217.722C149.794 219.352 148.472 220.679 146.846 220.679Z" fill="#D0D0D0"/>
<path d="M95.6367 335.263C119.24 335.263 138.374 316.067 138.374 292.387C138.374 268.707 119.24 249.51 95.6367 249.51C72.0334 249.51 52.8992 268.707 52.8992 292.387C52.8992 316.067 72.0334 335.263 95.6367 335.263Z" fill="#15803D"/>
<path d="M102.429 278.387C98.8221 278.536 94.7446 278.784 92.0787 281.561C89.7627 283.973 89.2551 287.552 91.6038 290.128C93.9586 292.71 97.6198 293.059 100.334 295.074C103.522 297.439 103.055 302.118 99.9703 304.36C96.3332 307.003 91.6372 305.771 88.3121 303.256C87.46 302.611 86.6329 304.055 87.4753 304.692C90.4544 306.945 94.3418 308.2 98.0252 307.122C101.349 306.148 103.926 303.429 104.188 299.892C104.314 298.204 103.835 296.49 102.789 295.157C101.684 293.75 100.093 292.885 98.485 292.18C95.7164 290.967 90.9494 289.398 91.7543 285.45C92.73 280.664 98.5362 280.211 102.429 280.05C103.492 280.006 103.498 278.343 102.429 278.387Z" fill="white"/>
<path d="M95.7378 276.123L95.5789 312.637C95.5742 313.708 97.2321 313.709 97.2368 312.637L97.3957 276.123C97.4004 275.053 95.7425 275.051 95.7378 276.123Z" fill="white"/>
<path d="M322.068 0H111.357C103.628 0 97.3425 6.30582 97.3425 14.0606V158.925C97.3425 166.68 103.628 172.985 111.357 172.985H322.068C329.798 172.985 336.083 166.68 336.083 158.925V14.0606C336.083 6.30582 329.798 0 322.068 0Z" fill="#F4F4F5"/>
<path d="M215.744 86.1348C228.766 86.1348 239.323 75.5436 239.323 62.4786C239.323 49.4137 228.766 38.8225 215.744 38.8225C202.721 38.8225 192.164 49.4137 192.164 62.4786C192.164 75.5436 202.721 86.1348 215.744 86.1348Z" fill="#15803D"/>
<path d="M220.217 51.9221C217.298 52.0428 214.012 52.2284 211.804 54.4076C209.976 56.2127 209.336 59.0228 211.017 61.1482C212.786 63.3859 215.729 63.8105 218.038 65.2405C219.474 66.1293 220.425 67.4757 220.456 69.2061C220.485 70.8261 219.74 72.3396 218.494 73.3549C215.438 75.846 211.269 74.8148 208.378 72.6362C207.809 72.2076 207.257 73.1698 207.82 73.5937C210.215 75.398 213.298 76.446 216.278 75.6696C219.021 74.955 221.231 72.7902 221.528 69.8975C221.841 66.8486 219.846 64.7726 217.258 63.5816C214.893 62.493 210.745 61.3331 211.136 57.9511C211.633 53.6512 216.88 53.1689 220.217 53.031C220.926 53.0017 220.929 51.8927 220.217 51.9221Z" fill="white"/>
<path d="M215.144 49.9113L215.012 80.3377C215.009 81.0513 216.114 81.0522 216.117 80.3377L216.25 49.9113C216.253 49.1977 215.148 49.1968 215.144 49.9113Z" fill="white"/>
<path d="M322.068 0H111.357C103.628 0 97.3425 6.30582 97.3425 14.0606V158.925C97.3425 166.68 103.628 172.985 111.357 172.985H322.068C329.798 172.985 336.083 166.68 336.083 158.925V14.0606C336.083 6.30582 329.798 0 322.068 0ZM334.609 158.925C334.609 165.866 328.987 171.507 322.068 171.507H111.357C104.438 171.507 98.8162 165.866 98.8162 158.925V14.0606C98.8162 7.11903 104.438 1.47851 111.357 1.47851H322.068C328.987 1.47851 334.609 7.11902 334.609 14.0606V158.925Z" fill="#393939"/>
<path d="M192.419 14.3046H171.743C170.704 14.3046 169.856 15.1547 169.856 16.197C169.856 17.2468 170.704 18.0969 171.743 18.0969H192.419C193.458 18.0969 194.305 17.2468 194.305 16.197C194.305 15.1547 193.458 14.3046 192.419 14.3046Z" fill="#D0D0D0"/>
<path d="M227.051 14.3046H206.375C205.336 14.3046 204.488 15.1547 204.488 16.197C204.488 17.2468 205.336 18.0969 206.375 18.0969H227.051C228.09 18.0969 228.937 17.2468 228.937 16.197C228.937 15.1547 228.09 14.3046 227.051 14.3046Z" fill="#D0D0D0"/>
<path d="M261.683 14.3046H241.007C239.968 14.3046 239.12 15.1547 239.12 16.197C239.12 17.2468 239.968 18.0969 241.007 18.0969H261.683C262.722 18.0969 263.569 17.2468 263.569 16.197C263.569 15.1547 262.722 14.3046 261.683 14.3046Z" fill="#D0D0D0"/>
<path d="M295.784 99.4413H137.641C131.061 99.4413 125.711 104.808 125.711 111.41V122.218C125.711 128.819 131.061 134.186 137.641 134.186H295.784C302.364 134.186 307.714 128.819 307.714 122.218V111.41C307.714 104.808 302.364 99.4413 295.784 99.4413Z" fill="#15803D"/>
<path d="M53.9224 156.346L47.8582 153.464C50.3454 156.947 52.4887 162.386 53.6361 166.713C55.5788 162.682 58.7106 157.749 61.8106 154.803L55.4013 156.457C59.3507 137.038 74.2052 123.097 91.2156 123.097V121.619C73.4477 121.619 57.9548 136.144 53.9224 156.346Z" fill="#393939"/>
<path d="M81.8337 185.934H43.5174C41.8922 185.934 40.5699 184.608 40.5699 182.977C40.5699 181.347 41.8922 180.02 43.5174 180.02H81.8337C83.4589 180.02 84.7811 181.347 84.7811 182.977C84.7811 184.608 83.4589 185.934 81.8337 185.934Z" fill="#D0D0D0"/>
<path d="M336.726 176.303L336.34 206.494L328.852 233.406L322.867 231.166L325.524 206.498L325.175 173.115L336.726 176.303Z" fill="#FFB6B6"/>
<path d="M328.826 237.746C329.529 233.876 328.241 230.4 325.951 229.982C323.661 229.563 321.235 232.361 320.533 236.231C319.83 240.101 321.118 243.577 323.408 243.996C325.698 244.414 328.124 241.616 328.826 237.746Z" fill="#FFB6B6"/>
<path d="M327.64 140.356C327.64 140.356 340.467 140.533 340.456 147.369C340.45 151.228 339.624 186.271 337.325 207.559C335.551 223.975 332.167 228.258 332.167 228.258L324.061 209.776L327.64 140.356Z" fill="#E6E6E6"/>
<path d="M327.311 202.037H283.993C287.624 193.909 289.856 186.168 286.366 180.01L327.311 177.629C325.264 185.941 325.014 194.099 327.311 202.037Z" fill="#FFB6B6"/>
<path d="M321.97 130.002L304.761 128.812L297.641 137.742L294.031 138.4C288.62 139.387 284.766 144.232 285.008 149.745L286.412 181.764L327.544 184.773L337.398 143.077L325.53 138.337L321.97 130.002Z" fill="#E6E6E6"/>
<path d="M217.026 139.661C218.247 140.763 219.118 142.05 219.579 143.299L231.87 153.059L227.07 158.791L215.118 148.273C213.832 147.945 212.464 147.212 211.244 146.11C208.454 143.592 207.488 140.108 209.084 138.327C210.681 136.547 214.237 137.144 217.026 139.661Z" fill="#FFB6B6"/>
<path d="M303.928 147.878L256.831 179.784L223.071 156.213L228.139 147.002L254.71 162.495L279.214 143.618C287.94 135.395 298.876 136.989 303.928 147.878Z" fill="#E6E6E6"/>
<path d="M312.345 126.138C319.396 126.138 325.112 120.403 325.112 113.329C325.112 106.256 319.396 100.521 312.345 100.521C305.294 100.521 299.578 106.256 299.578 113.329C299.578 120.403 305.294 126.138 312.345 126.138Z" fill="#FFB6B6"/>
<path d="M329.698 110.183V112.667L315.3 108.601L304.505 110.87C304.38 109.222 303.893 107.603 303.083 106.169C303.647 108.469 303.71 110.248 303.112 111.166L301.661 111.469C301.425 110.826 300.968 110.264 300.371 109.924C300.312 109.887 300.239 109.857 300.172 109.88C300.069 109.917 300.062 110.05 300.062 110.153C300.077 110.7 300.091 111.247 300.113 111.794L295.943 112.667V110.183C291.942 101.151 302.487 93.3349 312.824 93.2538C317.488 93.2172 321.703 95.1463 324.761 98.2067C327.812 101.275 329.698 105.503 329.698 110.183Z" fill="#393939"/>
<path d="M337.798 139.308L336.711 139.218C336.788 138.861 336.865 138.509 336.936 138.152C337.539 135.158 336.212 131.348 336.115 128.471C335.603 131.51 336.478 135.249 335.573 138.134C335.472 138.455 331.537 140.524 331.43 140.84C327.075 139.242 322.541 134.138 317.406 137.119C314.369 138.882 310.904 138.109 307.457 137.302C306.603 137.102 306.484 132.874 305.64 132.708C304.127 132.41 301.906 136.254 300.482 136.404L306.377 113.487C306.377 101.02 305.226 87.9405 320.966 92.3487C324.925 93.4574 328.844 94.3264 331.765 97.6046C334.687 100.887 336.768 105.475 337.505 110.699C337.949 113.851 340.723 124.552 337.798 139.308Z" fill="#393939"/>
<path d="M327.633 369.76L320.606 369.927L316.689 338.254L327.059 338.008L327.633 369.76Z" fill="#FFB7B7"/>
<path d="M303.524 384.469C303.524 385.66 304.366 386.625 305.406 386.625H319.354C319.354 386.625 320.726 381.09 326.323 378.708L326.709 386.625H333.904L333.033 373.894C333.033 373.894 334.957 367.083 330.96 363.601C326.963 360.119 330.2 360.604 330.2 360.604L328.628 352.724L317.755 354.007L317.675 366.376L312.398 378.654L304.659 382.489C303.97 382.831 303.524 383.609 303.524 384.469Z" fill="#393939"/>
<path d="M306.254 364.599L299.499 366.549L287.699 336.91L297.668 334.032L306.254 364.599Z" fill="#FFB7B7"/>
<path d="M286.655 384.964C286.956 386.116 288.015 386.835 289.02 386.57L302.512 383.02C302.512 383.02 302.439 377.316 307.25 373.587L309.626 381.147L316.586 379.315L312.522 367.222C312.522 367.222 312.661 360.144 307.914 357.794C303.167 355.444 306.421 355.088 306.421 355.088L302.907 347.867L292.715 351.876L295.766 363.861L293.768 377.08L287.252 382.76C286.672 383.266 286.437 384.132 286.655 384.964Z" fill="#393939"/>
<path d="M323.324 200.166L327.745 201.645C334.658 214.453 337.588 231.462 337.2 251.972L329.347 344.091H316.499L307.096 241.467L290.517 279.985L302.647 344.091L290.517 345.332L266.085 278.672L283.1 201.197L323.324 200.166Z" fill="#393939"/>
</g>
<defs>
<clipPath id="clip0_39_174">
<rect width="402" height="387" fill="white"/>
</clipPath>
</defs>
</svg>
